<svg id="visual" viewBox="0 0 900 600" width="900" height="600" xmlns="http://www.w3.org/2000/svg" xmlns:xlink="http://www.w3.org/1999/xlink" version="1.1"><g stroke-width="2" stroke-linejoin="bevel"><path d="M404 319L307 306L382 386Z" fill="#092b40" stroke="#FFFFFF"></path><path d="M307 306L280 380L382 386Z" fill="#083c57" stroke="#FFFFFF"></path><path d="M280 380L397 462L382 386Z" fill="#082031" stroke="#FFFFFF"></path><path d="M529 372L529 318L404 319Z" fill="#093148" stroke="#FFFFFF"></path><path d="M307 306L217 302L280 380Z" fill="#041623" stroke="#FFFFFF"></path><path d="M404 319L371 185L307 306Z" fill="#00101c" stroke="#FFFFFF"></path><path d="M307 306L199 234L217 302Z" fill="#071b2a" stroke="#FFFFFF"></path><path d="M217 302L184 393L280 380Z" fill="#082638" stroke="#FFFFFF"></path><path d="M280 380L274 515L397 462Z" fill="#082031" stroke="#FFFFFF"></path><path d="M529 372L404 319L382 386Z" fill="#07425f" stroke="#FFFFFF"></path><path d="M404 319L499 234L371 185Z" fill="#09364f" stroke="#FFFFFF"></path><path d="M397 462L529 372L382 386Z" fill="#093148" stroke="#FFFFFF"></path><path d="M529 318L499 234L404 319Z" fill="#093148" stroke="#FFFFFF"></path><path d="M280 168L199 234L307 306Z" fill="#00101c" stroke="#FFFFFF"></path><path d="M217 302L91 374L184 393Z" fill="#092b40" stroke="#FFFFFF"></path><path d="M371 185L280 168L307 306Z" fill="#082031" stroke="#FFFFFF"></path><path d="M234 512L274 515L280 380Z" fill="#041623" stroke="#FFFFFF"></path><path d="M184 393L234 512L280 380Z" fill="#093148" stroke="#FFFFFF"></path><path d="M499 234L427 136L371 185Z" fill="#07425f" stroke="#FFFFFF"></path><path d="M371 185L262 88L280 168Z" fill="#07425f" stroke="#FFFFFF"></path><path d="M529 372L570 332L529 318Z" fill="#00101c" stroke="#FFFFFF"></path><path d="M529 318L616 226L499 234Z" fill="#054867" stroke="#FFFFFF"></path><path d="M390 600L529 503L397 462Z" fill="#083c57" stroke="#FFFFFF"></path><path d="M397 462L529 503L529 372Z" fill="#092b40" stroke="#FFFFFF"></path><path d="M529 372L630 406L570 332Z" fill="#041623" stroke="#FFFFFF"></path><path d="M91 374L137 460L184 393Z" fill="#054867" stroke="#FFFFFF"></path><path d="M184 393L137 460L234 512Z" fill="#041623" stroke="#FFFFFF"></path><path d="M616 226L468 108L499 234Z" fill="#09364f" stroke="#FFFFFF"></path><path d="M499 234L468 108L427 136Z" fill="#092b40" stroke="#FFFFFF"></path><path d="M427 136L262 88L371 185Z" fill="#093148" stroke="#FFFFFF"></path><path d="M66 264L91 374L217 302Z" fill="#071b2a" stroke="#FFFFFF"></path><path d="M271 600L390 600L274 515Z" fill="#07425f" stroke="#FFFFFF"></path><path d="M274 515L390 600L397 462Z" fill="#082031" stroke="#FFFFFF"></path><path d="M271 600L274 515L232 600Z" fill="#093148" stroke="#FFFFFF"></path><path d="M302 0L262 88L427 136Z" fill="#09364f" stroke="#FFFFFF"></path><path d="M280 168L136 113L199 234Z" fill="#092b40" stroke="#FFFFFF"></path><path d="M199 234L66 264L217 302Z" fill="#092b40" stroke="#FFFFFF"></path><path d="M583 600L593 467L529 503Z" fill="#09364f" stroke="#FFFFFF"></path><path d="M529 503L593 467L529 372Z" fill="#07425f" stroke="#FFFFFF"></path><path d="M232 600L274 515L234 512Z" fill="#083c57" stroke="#FFFFFF"></path><path d="M593 467L630 406L529 372Z" fill="#083c57" stroke="#FFFFFF"></path><path d="M570 332L616 226L529 318Z" fill="#082638" stroke="#FFFFFF"></path><path d="M106 600L232 600L234 512Z" fill="#071b2a" stroke="#FFFFFF"></path><path d="M713 312L616 226L570 332Z" fill="#071b2a" stroke="#FFFFFF"></path><path d="M75 213L66 264L199 234Z" fill="#07425f" stroke="#FFFFFF"></path><path d="M136 113L75 213L199 234Z" fill="#054867" stroke="#FFFFFF"></path><path d="M390 600L509 600L529 503Z" fill="#054867" stroke="#FFFFFF"></path><path d="M262 88L136 113L280 168Z" fill="#041623" stroke="#FFFFFF"></path><path d="M209 0L188 60L262 88Z" fill="#082031" stroke="#FFFFFF"></path><path d="M262 88L188 60L136 113Z" fill="#054867" stroke="#FFFFFF"></path><path d="M636 78L509 0L468 108Z" fill="#09364f" stroke="#FFFFFF"></path><path d="M713 312L666 210L616 226Z" fill="#09364f" stroke="#FFFFFF"></path><path d="M593 467L683 421L630 406Z" fill="#09364f" stroke="#FFFFFF"></path><path d="M630 406L713 312L570 332Z" fill="#041623" stroke="#FFFFFF"></path><path d="M716 475L683 421L593 467Z" fill="#082031" stroke="#FFFFFF"></path><path d="M416 0L302 0L427 136Z" fill="#093148" stroke="#FFFFFF"></path><path d="M416 0L427 136L468 108Z" fill="#093148" stroke="#FFFFFF"></path><path d="M509 0L416 0L468 108Z" fill="#071b2a" stroke="#FFFFFF"></path><path d="M509 600L583 600L529 503Z" fill="#083c57" stroke="#FFFFFF"></path><path d="M91 374L0 514L137 460Z" fill="#054867" stroke="#FFFFFF"></path><path d="M137 460L106 600L234 512Z" fill="#092b40" stroke="#FFFFFF"></path><path d="M66 264L0 360L91 374Z" fill="#093148" stroke="#FFFFFF"></path><path d="M0 263L0 360L66 264Z" fill="#082638" stroke="#FFFFFF"></path><path d="M0 514L106 600L137 460Z" fill="#041623" stroke="#FFFFFF"></path><path d="M0 167L0 263L75 213Z" fill="#041623" stroke="#FFFFFF"></path><path d="M75 213L0 263L66 264Z" fill="#09364f" stroke="#FFFFFF"></path><path d="M683 421L713 312L630 406Z" fill="#00101c" stroke="#FFFFFF"></path><path d="M188 60L96 0L136 113Z" fill="#082031" stroke="#FFFFFF"></path><path d="M0 135L0 167L75 213Z" fill="#071b2a" stroke="#FFFFFF"></path><path d="M302 0L209 0L262 88Z" fill="#071b2a" stroke="#FFFFFF"></path><path d="M636 78L468 108L616 226Z" fill="#092b40" stroke="#FFFFFF"></path><path d="M704 83L636 78L666 210Z" fill="#093148" stroke="#FFFFFF"></path><path d="M666 210L636 78L616 226Z" fill="#071b2a" stroke="#FFFFFF"></path><path d="M705 600L716 475L593 467Z" fill="#071b2a" stroke="#FFFFFF"></path><path d="M683 421L797 391L713 312Z" fill="#041623" stroke="#FFFFFF"></path><path d="M0 135L75 213L136 113Z" fill="#054867" stroke="#FFFFFF"></path><path d="M0 360L0 514L91 374Z" fill="#09364f" stroke="#FFFFFF"></path><path d="M96 0L0 135L136 113Z" fill="#093148" stroke="#FFFFFF"></path><path d="M636 78L605 0L509 0Z" fill="#083c57" stroke="#FFFFFF"></path><path d="M209 0L96 0L188 60Z" fill="#054867" stroke="#FFFFFF"></path><path d="M797 391L773 278L713 312Z" fill="#071b2a" stroke="#FFFFFF"></path><path d="M713 312L773 278L666 210Z" fill="#054867" stroke="#FFFFFF"></path><path d="M636 78L690 0L605 0Z" fill="#083c57" stroke="#FFFFFF"></path><path d="M819 137L704 83L666 210Z" fill="#071b2a" stroke="#FFFFFF"></path><path d="M0 514L0 600L106 600Z" fill="#041623" stroke="#FFFFFF"></path><path d="M583 600L705 600L593 467Z" fill="#07425f" stroke="#FFFFFF"></path><path d="M716 475L797 391L683 421Z" fill="#041623" stroke="#FFFFFF"></path><path d="M834 518L797 391L716 475Z" fill="#07425f" stroke="#FFFFFF"></path><path d="M778 0L690 0L704 83Z" fill="#054867" stroke="#FFFFFF"></path><path d="M704 83L690 0L636 78Z" fill="#054867" stroke="#FFFFFF"></path><path d="M96 0L0 0L0 135Z" fill="#07425f" stroke="#FFFFFF"></path><path d="M900 300L837 236L773 278Z" fill="#07425f" stroke="#FFFFFF"></path><path d="M773 278L819 137L666 210Z" fill="#082638" stroke="#FFFFFF"></path><path d="M837 236L819 137L773 278Z" fill="#054867" stroke="#FFFFFF"></path><path d="M705 600L834 518L716 475Z" fill="#09364f" stroke="#FFFFFF"></path><path d="M797 391L900 300L773 278Z" fill="#054867" stroke="#FFFFFF"></path><path d="M705 600L828 600L834 518Z" fill="#082638" stroke="#FFFFFF"></path><path d="M819 137L778 0L704 83Z" fill="#00101c" stroke="#FFFFFF"></path><path d="M900 436L900 300L797 391Z" fill="#093148" stroke="#FFFFFF"></path><path d="M837 236L900 218L819 137Z" fill="#071b2a" stroke="#FFFFFF"></path><path d="M819 137L900 0L778 0Z" fill="#093148" stroke="#FFFFFF"></path><path d="M900 436L797 391L834 518Z" fill="#071b2a" stroke="#FFFFFF"></path><path d="M900 493L900 436L834 518Z" fill="#082638" stroke="#FFFFFF"></path><path d="M900 300L900 218L837 236Z" fill="#082638" stroke="#FFFFFF"></path><path d="M900 600L900 493L834 518Z" fill="#054867" stroke="#FFFFFF"></path><path d="M900 218L900 126L819 137Z" fill="#07425f" stroke="#FFFFFF"></path><path d="M828 600L900 600L834 518Z" fill="#082031" stroke="#FFFFFF"></path><path d="M900 126L900 0L819 137Z" fill="#082031" stroke="#FFFFFF"></path></g></svg>